<?xml version="1.0" encoding="utf-8"?>
<!-- Generator: Adobe Illustrator 24.1.0, SVG Export Plug-In . SVG Version: 6.00 Build 0)  -->
<svg version="1.1" id="Livello_1" xmlns="http://www.w3.org/2000/svg" xmlns:xlink="http://www.w3.org/1999/xlink" x="0px" y="0px"
	 viewBox="0 0 424.63 576.1" style="enable-background:new 0 0 424.63 576.1;" xml:space="preserve">
<style type="text/css">
	.st0{fill:url(#SVGID_1_);}
	.st1{fill:none;}
	.st2{fill:url(#SVGID_2_);}
	.st3{fill:url(#SVGID_3_);}
	.st4{fill:url(#SVGID_4_);}
	.st5{fill:url(#SVGID_5_);}
</style>
<linearGradient id="SVGID_1_" gradientUnits="userSpaceOnUse" x1="0.2084" y1="338.4485" x2="252.2946" y2="353.9723">
	<stop  offset="0" style="stop-color:#FBB03B"/>
	<stop  offset="0.2035" style="stop-color:#FAAC3A"/>
	<stop  offset="0.4261" style="stop-color:#F99E36"/>
	<stop  offset="0.6577" style="stop-color:#F68930"/>
	<stop  offset="0.8941" style="stop-color:#F36A28"/>
	<stop  offset="1" style="stop-color:#F15A24"/>
</linearGradient>
<path class="st0" d="M252.56,366.38c-0.37-0.04-0.73-0.09-1.1-0.12C134.15,263.13-13.97,397.61,44.4,496.38
	C-5.63,430.11-21.85,315.36,40.64,238c12.07-14.94,16.05-38.18,33.96-50.18C72.64,298,181.64,208,244.6,345.75
	C247.88,352.5,250.52,359.4,252.56,366.38z"/>
<path class="st1" d="M45.64,498c-0.42-0.54-0.83-1.08-1.24-1.62"/>
<linearGradient id="SVGID_2_" gradientUnits="userSpaceOnUse" x1="40.7204" y1="515.5338" x2="195.1586" y2="358.5681">
	<stop  offset="0" style="stop-color:#FCEE82"/>
	<stop  offset="0.1201" style="stop-color:#F9EFA1"/>
	<stop  offset="0.2621" style="stop-color:#F7F0BE"/>
	<stop  offset="0.4133" style="stop-color:#F5F1D5"/>
	<stop  offset="0.5759" style="stop-color:#F3F2E5"/>
	<stop  offset="0.7581" style="stop-color:#F2F2EF"/>
	<stop  offset="1" style="stop-color:#F2F2F2"/>
</linearGradient>
<path class="st2" d="M251.46,366.26c-43.13-6.56-82.95,11.73-110.09,41.76c-35.16,38.9-49.1,97.48-21.54,147.32
	c-33.26-13.7-55.98-31.37-70.07-50.79c-1.95-2.69-3.74-5.42-5.36-8.17C-13.97,397.61,134.15,263.13,251.46,366.26z"/>
<linearGradient id="SVGID_3_" gradientUnits="userSpaceOnUse" x1="186.3437" y1="382.0715" x2="246.9665" y2="589.3798">
	<stop  offset="0" style="stop-color:#FAEF97"/>
	<stop  offset="0.3946" style="stop-color:#FACF70"/>
	<stop  offset="1" style="stop-color:#F9A137"/>
</linearGradient>
<path class="st3" d="M321.64,434c-76,33-138,4-180-26c0,0-16.29,18.84-25,38c-25,55,0.03,107.93,3.19,109.34
	C150.64,569,176.64,578,221.81,575.75C263.17,573.69,305.64,504,321.64,434z"/>
<linearGradient id="SVGID_4_" gradientUnits="userSpaceOnUse" x1="125.5069" y1="122.684" x2="336.9283" y2="286.1738">
	<stop  offset="0" style="stop-color:#F5F1CE"/>
	<stop  offset="0.1465" style="stop-color:#F5EFC9"/>
	<stop  offset="0.3148" style="stop-color:#F6E9BB"/>
	<stop  offset="0.4939" style="stop-color:#F7DFA4"/>
	<stop  offset="0.6805" style="stop-color:#F8D084"/>
	<stop  offset="0.8711" style="stop-color:#FABE5B"/>
	<stop  offset="1" style="stop-color:#FBB03B"/>
</linearGradient>
<path class="st4" d="M372.9,329.56c0,42.56-20.32,80.38-51.78,104.3c12.95-59.59-1.27-120.44-55.48-153.86
	c-32.65-20.13-68.11-36.66-97.33-58.63c-36.1-27.13-62.67-62.57-62.67-123.37c0-42.58,32-89,68-98c-0.01,0.04-0.01,0.07-0.02,0.11
	C171.95,2.44,124,40.5,150.64,118c11,32,43.29,58.83,105.75,74.91C326.64,211,372.9,262.26,372.9,329.56z"/>
<linearGradient id="SVGID_5_" gradientUnits="userSpaceOnUse" x1="165.7584" y1="97.1659" x2="286.6729" y2="351.9578">
	<stop  offset="0" style="stop-color:#F5F1CE"/>
	<stop  offset="0.2755" style="stop-color:#F9C974"/>
	<stop  offset="0.4642" style="stop-color:#FBB03B"/>
	<stop  offset="0.6632" style="stop-color:#F9A42F"/>
	<stop  offset="1" style="stop-color:#F7931E"/>
</linearGradient>
<path class="st5" d="M221.52,575.72c50.24-29.57,87.03-84.8,99.46-141.25c0.06-0.21,0.1-0.41,0.14-0.61
	c31.46-23.92,51.78-61.74,51.78-104.3c0-67.3-46.26-118.56-116.51-136.65C193.93,176.83,161.64,150,150.64,118
	C124,40.5,171.95,2.44,173.62,0.11c-8.93,57.9,26.64,67.48,106.02,106.89C491.75,207.33,470.08,553.42,221.52,575.72z"/>
<path class="st1" d="M173.64,0c0.05,0,0.04,0.04-0.02,0.11"/>
<path class="st1" d="M242.01,198.66"/>
</svg>
